<svg width="23" height="23" viewBox="0 0 23 23" fill="none" xmlns="http://www.w3.org/2000/svg">
<path d="M18.6999 20.7H13.0999C12.5999 20.7 12.1999 20.3 12.1999 19.8V13.2C12.1999 12.7 12.5999 12.3 13.0999 12.3H20.5999C21.0999 12.3 21.4999 12.7 21.4999 13.2V17.9C21.4999 18.7 21.1999 19.4 20.6999 19.9C20.1999 20.4 19.4999 20.7 18.6999 20.7ZM13.9999 18.8H18.6999C18.8999 18.8 19.1999 18.7 19.3999 18.5C19.5999 18.3 19.6999 18.1 19.6999 17.8V14.1H13.9999V18.8ZM9.3999 20.7H3.6999C2.8999 20.7 2.1999 20.4 1.6999 19.9C1.1999 19.4 0.899902 18.7 0.899902 17.9V4.8C0.899902 4 1.1999 3.3 1.6999 2.8C2.2999 2.2 2.9999 2 3.6999 2H9.2999C9.7999 2 10.1999 2.4 10.1999 2.9V19.8C10.2999 20.3 9.8999 20.7 9.3999 20.7ZM3.6999 3.8C3.3999 3.8 3.1999 3.9 2.9999 4.1C2.8999 4.3 2.7999 4.5 2.7999 4.8V17.9C2.7999 18.1 2.8999 18.4 3.0999 18.6C3.2999 18.8 3.4999 18.9 3.7999 18.9H8.4999V3.8H3.6999ZM20.5999 10.4H13.0999C12.5999 10.4 12.1999 10 12.1999 9.5V2.9C12.1999 2.4 12.5999 2 13.0999 2H18.6999C19.4999 2 20.1999 2.3 20.6999 2.8C21.1999 3.3 21.4999 4 21.4999 4.8V9.5C21.4999 10 21.0999 10.4 20.5999 10.4ZM13.9999 8.5H19.5999V4.8C19.5999 4.6 19.4999 4.3 19.2999 4.1C19.0999 3.9 18.8999 3.8 18.5999 3.8H13.9999V8.5Z" fill="#616161"/>
</svg>
