<svg width="23" height="23" viewBox="0 0 23 23" fill="none" xmlns="http://www.w3.org/2000/svg">
<path d="M1.87256 4.76496C1.87256 4.26825 2.06988 3.79187 2.42111 3.44064C2.77234 3.08941 3.24871 2.89209 3.74543 2.89209H9.36405V19.7479H3.74543C3.24871 19.7479 2.77234 19.5506 2.42111 19.1994C2.06988 18.8482 1.87256 18.3718 1.87256 17.8751V4.76496ZM13.1098 2.89209H18.7284C19.2251 2.89209 19.7015 3.08941 20.0527 3.44064C20.404 3.79187 20.6013 4.26825 20.6013 4.76496V9.44714H13.1098V2.89209ZM13.1098 13.1929H20.6013V17.8751C20.6013 18.3718 20.404 18.8482 20.0527 19.1994C19.7015 19.5506 19.2251 19.7479 18.7284 19.7479H13.1098V13.1929Z" stroke="#616161" stroke-width="1.87287" stroke-linecap="round" stroke-linejoin="round"/>
</svg>
