<svg width="54" height="54" viewBox="0 0 54 54" fill="none" xmlns="http://www.w3.org/2000/svg">
<path opacity="0.5" fill-rule="evenodd" clip-rule="evenodd" d="M31.5 49.5H22.5C14.0153 49.5 9.77175 49.5 7.137 46.863C4.50225 44.226 4.5 39.9847 4.5 31.5V22.5C4.5 14.0153 4.5 9.77175 7.137 7.137C9.774 4.50225 14.0377 4.5 22.5675 4.5C23.931 4.5 25.0222 4.5 25.9425 4.53825C25.9125 4.71825 25.8975 4.90125 25.8975 5.08725L25.875 11.4637C25.875 13.932 25.875 16.1145 26.1112 17.8717C26.3677 19.7775 26.955 21.6833 28.512 23.2403C30.0645 24.7928 31.9725 25.3823 33.8783 25.6388C35.6355 25.875 37.818 25.875 40.2863 25.875H49.4033C49.5 27.0765 49.5 28.5525 49.5 30.5168V31.5C49.5 39.9847 49.5 44.2282 46.863 46.863C44.226 49.4977 39.9847 49.5 31.5 49.5Z" fill="url(#paint0_linear_60_3254)"/>
<path d="M25.8975 5.08498L25.875 11.4637C25.875 13.932 25.875 16.1122 26.1112 17.8717C26.3677 19.7775 26.955 21.6832 28.512 23.238C30.0645 24.7927 31.9725 25.3822 33.8782 25.6387C35.6355 25.875 37.818 25.875 40.2863 25.875H49.4033C49.4333 26.223 49.4543 26.598 49.4663 27H49.5C49.5 26.397 49.5 26.0955 49.4775 25.74C49.3066 23.6014 48.5619 21.5485 47.322 19.7977C47.1105 19.5097 46.9665 19.3387 46.6807 18.9945C44.8965 16.8615 42.5475 14.202 40.5 12.375C38.6775 10.746 36.1777 8.96623 33.9975 7.51273C32.1255 6.26173 31.1895 5.63623 29.9047 5.17273C29.5305 5.04055 29.1507 4.92494 28.7662 4.82623C27.9022 4.61248 27.0608 4.53823 25.875 4.51123L25.8975 5.08498Z" fill="url(#paint1_linear_60_3254)"/>
<g clip-path="url(#clip0_60_3254)">
<path d="M24.7425 41.1874C24.7425 41.4923 24.6358 41.7515 24.4224 41.9649L22.8675 43.5198C22.6541 43.7332 22.3949 43.8399 22.09 43.8399C21.7852 43.8399 21.526 43.7332 21.3126 43.5198L17.9513 40.1585L14.59 43.5198C14.3766 43.7332 14.1175 43.8399 13.8126 43.8399C13.5077 43.8399 13.2486 43.7332 13.0352 43.5198L11.4803 41.9649C11.2669 41.7515 11.1602 41.4923 11.1602 41.1874C11.1602 40.8826 11.2669 40.6234 11.4803 40.41L14.8416 37.0487L11.4803 33.6874C11.2669 33.474 11.1602 33.2149 11.1602 32.91C11.1602 32.6051 11.2669 32.346 11.4803 32.1326L13.0352 30.5777C13.2486 30.3643 13.5077 30.2576 13.8126 30.2576C14.1175 30.2576 14.3766 30.3643 14.59 30.5777L17.9513 33.939L21.3126 30.5777C21.526 30.3643 21.7852 30.2576 22.09 30.2576C22.3949 30.2576 22.6541 30.3643 22.8675 30.5777L24.4224 32.1326C24.6358 32.346 24.7425 32.6051 24.7425 32.91C24.7425 33.2149 24.6358 33.474 24.4224 33.6874L21.0611 37.0487L24.4224 40.41C24.6358 40.6234 24.7425 40.8826 24.7425 41.1874Z" fill="url(#paint2_linear_60_3254)"/>
</g>
<defs>
<linearGradient id="paint0_linear_60_3254" x1="4.5" y1="4.5" x2="49.5001" y2="49.4999" gradientUnits="userSpaceOnUse">
<stop stop-color="#FF5630"/>
<stop offset="1" stop-color="#B71D18"/>
</linearGradient>
<linearGradient id="paint1_linear_60_3254" x1="25.875" y1="4.51123" x2="48.3365" y2="28.1075" gradientUnits="userSpaceOnUse">
<stop stop-color="#FF5630"/>
<stop offset="1" stop-color="#B71D18"/>
</linearGradient>
<linearGradient id="paint2_linear_60_3254" x1="11.1602" y1="30.2576" x2="24.7425" y2="43.8399" gradientUnits="userSpaceOnUse">
<stop stop-color="#FF5630"/>
<stop offset="1" stop-color="#B71D18"/>
</linearGradient>
<clipPath id="clip0_60_3254">
<rect width="13.9024" height="15" fill="white" transform="translate(11 29)"/>
</clipPath>
</defs>
</svg>
