<svg width="30" height="30" viewBox="0 0 30 30" fill="none" xmlns="http://www.w3.org/2000/svg">
<path d="M26.2141 3.34766L3.38852 3.34766C2.78315 3.34766 2.20257 3.58814 1.7745 4.0162C1.34644 4.44427 1.10596 5.02485 1.10596 5.63022L1.10596 19.3256C1.10596 19.931 1.34644 20.5115 1.7745 20.9396C2.20257 21.3677 2.78315 21.6082 3.38852 21.6082L11.3318 21.6082L11.3318 24.8037L7.49713 24.8037L7.49713 27.0863L22.1055 27.0863L22.1055 24.8037L18.2891 24.8037L18.2891 21.6082L26.2141 21.6082C26.8195 21.6082 27.4001 21.3677 27.8282 20.9396C28.2562 20.5115 28.4967 19.931 28.4967 19.3256L28.4967 5.63022C28.4967 5.02485 28.2562 4.44427 27.8282 4.0162C27.4001 3.58814 26.8195 3.34766 26.2141 3.34766ZM16.0065 24.8037L13.6144 24.8037L13.6144 21.6082L16.0065 21.6082L16.0065 24.8037ZM26.2141 19.3256L3.38852 19.3256L3.38852 5.63022L26.2141 5.63022L26.2141 19.3256Z" fill="#616161"/>
</svg>
