<svg width="23" height="23" viewBox="0 0 23 23" fill="none" xmlns="http://www.w3.org/2000/svg">
<path fill-rule="evenodd" clip-rule="evenodd" d="M1.48584 5.05729C1.48584 4.12595 1.85582 3.23275 2.51438 2.57419C3.17294 1.91563 4.06613 1.54565 4.99748 1.54565H18.1076C18.8446 1.54565 19.563 1.77755 20.1609 2.2085C20.7588 2.63945 21.2059 3.2476 21.439 3.94681C21.6721 4.64602 21.6792 5.40084 21.4595 6.10434C21.2397 6.80785 20.8042 7.42438 20.2146 7.8666C20.8042 8.30882 21.2397 8.92534 21.4595 9.62885C21.6792 10.3324 21.6721 11.0872 21.439 11.7864C21.2059 12.4856 20.7588 13.0937 20.1609 13.5247C19.563 13.9556 18.8446 14.1875 18.1076 14.1875H12.2549V15.6896C13.1126 15.9321 13.7878 16.6073 14.0303 17.4651H20.9169C21.1032 17.4651 21.2818 17.5391 21.4135 17.6708C21.5452 17.8025 21.6192 17.9811 21.6192 18.1674C21.6192 18.3537 21.5452 18.5323 21.4135 18.664C21.2818 18.7957 21.1032 18.8697 20.9169 18.8697H14.0313C13.8782 19.409 13.5534 19.8837 13.1062 20.2217C12.6589 20.5597 12.1136 20.7426 11.553 20.7426C10.9924 20.7426 10.4471 20.5597 9.99982 20.2217C9.55256 19.8837 9.22777 19.409 9.07472 18.8697H2.18817C2.0019 18.8697 1.82326 18.7957 1.69155 18.664C1.55984 18.5323 1.48584 18.3537 1.48584 18.1674C1.48584 17.9811 1.55984 17.8025 1.69155 17.6708C1.82326 17.5391 2.0019 17.4651 2.18817 17.4651H9.07472C9.19536 17.0426 9.42171 16.6579 9.73237 16.3472C10.043 16.0366 10.4278 15.8102 10.8502 15.6896V14.1875H4.99748C4.26045 14.1875 3.5421 13.9556 2.94419 13.5247C2.34628 13.0937 1.89912 12.4856 1.66605 11.7864C1.43298 11.0872 1.42582 10.3324 1.64557 9.62885C1.86533 8.92534 2.30087 8.30882 2.8905 7.8666C2.45383 7.54001 2.09945 7.11596 1.85558 6.62824C1.61172 6.14051 1.48511 5.60258 1.48584 5.05729ZM4.99748 7.16427C4.43867 7.16427 3.90275 6.94229 3.50762 6.54715C3.11248 6.15201 2.8905 5.6161 2.8905 5.05729C2.8905 4.49848 3.11248 3.96256 3.50762 3.56743C3.90275 3.17229 4.43867 2.95031 4.99748 2.95031H18.1076C18.6664 2.95031 19.2023 3.17229 19.5974 3.56743C19.9926 3.96256 20.2146 4.49848 20.2146 5.05729C20.2146 5.6161 19.9926 6.15201 19.5974 6.54715C19.2023 6.94229 18.6664 7.16427 18.1076 7.16427H4.99748ZM18.1076 8.56892H4.99748C4.43867 8.56892 3.90275 8.79091 3.50762 9.18604C3.11248 9.58118 2.8905 10.1171 2.8905 10.6759C2.8905 11.2347 3.11248 11.7706 3.50762 12.1658C3.90275 12.5609 4.43867 12.7829 4.99748 12.7829H18.1076C18.6664 12.7829 19.2023 12.5609 19.5974 12.1658C19.9926 11.7706 20.2146 11.2347 20.2146 10.6759C20.2146 10.1171 19.9926 9.58118 19.5974 9.18604C19.2023 8.79091 18.6664 8.56892 18.1076 8.56892ZM11.5525 16.9968C11.3988 16.9968 11.2466 17.0271 11.1046 17.0859C10.9626 17.1448 10.8335 17.231 10.7248 17.3397C10.6161 17.4484 10.5299 17.5774 10.4711 17.7194C10.4123 17.8615 10.382 18.0137 10.382 18.1674C10.382 18.3211 10.4123 18.4733 10.4711 18.6153C10.5299 18.7574 10.6161 18.8864 10.7248 18.9951C10.8335 19.1038 10.9626 19.19 11.1046 19.2488C11.2466 19.3077 11.3988 19.3379 11.5525 19.3379C11.863 19.3379 12.1607 19.2146 12.3802 18.9951C12.5997 18.7756 12.7231 18.4778 12.7231 18.1674C12.7231 17.8569 12.5997 17.5592 12.3802 17.3397C12.1607 17.1202 11.863 16.9968 11.5525 16.9968Z" fill="#616161"/>
</svg>
