<svg width="26" height="26" viewBox="0 0 26 26" fill="none" xmlns="http://www.w3.org/2000/svg">
<path fill-rule="evenodd" clip-rule="evenodd" d="M11.6458 2.78102C12.0273 2.56068 12.4568 2.43674 12.897 2.41994C13.3373 2.40314 13.775 2.49398 14.1721 2.6846L14.3541 2.78102L21.1726 6.71677C21.5561 6.93808 21.8795 7.25003 22.1144 7.6253C22.3494 8.00057 22.4887 8.42773 22.5203 8.86935L22.5268 9.06218V16.9359C22.5267 17.3785 22.4181 17.8143 22.2106 18.2053C22.003 18.5962 21.7028 18.9303 21.3362 19.1784L21.1737 19.2813L14.3541 23.2181C13.9726 23.4384 13.5432 23.5624 13.1029 23.5792C12.6627 23.596 12.225 23.5051 11.8278 23.3145L11.6458 23.217L4.82731 19.2834C4.44384 19.0621 4.12047 18.7502 3.88552 18.3749C3.65058 17.9996 3.51122 17.5725 3.47964 17.1309L3.47314 16.938V9.06327C3.47336 8.62055 3.58211 8.18464 3.78986 7.79369C3.9976 7.40275 4.29802 7.06869 4.66481 6.82077L4.82731 6.71785L11.6458 2.78102ZM13.2708 4.65735C13.2025 4.61794 13.1263 4.59393 13.0477 4.587C12.9692 4.58008 12.89 4.59041 12.8158 4.61727L12.7291 4.65735L5.91064 8.59418C5.84238 8.63365 5.78354 8.68753 5.73826 8.75209C5.69298 8.81665 5.66234 8.89031 5.64848 8.96793L5.63981 9.06327V16.9369C5.63989 17.0158 5.65719 17.0937 5.6905 17.1652C5.7238 17.2366 5.77232 17.3 5.83264 17.3508L5.91064 17.4049L12.7291 21.3429C12.7975 21.3823 12.8736 21.4063 12.9522 21.4132C13.0308 21.4201 13.11 21.4098 13.1841 21.3829L13.2708 21.3429L20.0893 17.406C20.1578 17.3667 20.2168 17.3128 20.2623 17.2483C20.3078 17.1837 20.3386 17.11 20.3526 17.0323L20.3601 16.9369V9.06327C20.3602 8.98449 20.3431 8.90666 20.31 8.83519C20.2768 8.76371 20.2285 8.70032 20.1684 8.64943L20.0893 8.59418L13.2708 4.65735ZM13 8.66677C14.1492 8.66677 15.2514 9.12331 16.0641 9.93597C16.8768 10.7486 17.3333 11.8508 17.3333 13.0001C17.3333 14.1494 16.8768 15.2516 16.0641 16.0642C15.2514 16.8769 14.1492 17.3334 13 17.3334C11.8507 17.3334 10.7485 16.8769 9.93585 16.0642C9.12319 15.2516 8.66664 14.1494 8.66664 13.0001C8.66664 11.8508 9.12319 10.7486 9.93585 9.93597C10.7485 9.12331 11.8507 8.66677 13 8.66677ZM13 10.8334C12.4253 10.8334 11.8742 11.0617 11.4679 11.468C11.0616 11.8744 10.8333 12.4255 10.8333 13.0001C10.8333 13.5747 11.0616 14.1258 11.4679 14.5322C11.8742 14.9385 12.4253 15.1668 13 15.1668C13.5746 15.1668 14.1257 14.9385 14.532 14.5322C14.9384 14.1258 15.1666 13.5747 15.1666 13.0001C15.1666 12.4255 14.9384 11.8744 14.532 11.468C14.1257 11.0617 13.5746 10.8334 13 10.8334Z" fill="#616161"/>
</svg>
