<svg width="54" height="54" viewBox="0 0 54 54" fill="none" xmlns="http://www.w3.org/2000/svg">
<path opacity="0.5" fill-rule="evenodd" clip-rule="evenodd" d="M31.5 49.5H22.5C14.0153 49.5 9.77175 49.5 7.137 46.863C4.50225 44.226 4.5 39.9847 4.5 31.5V22.5C4.5 14.0153 4.5 9.77175 7.137 7.137C9.774 4.50225 14.0377 4.5 22.5675 4.5C23.931 4.5 25.0222 4.5 25.9425 4.53825C25.9125 4.71825 25.8975 4.90125 25.8975 5.08725L25.875 11.4637C25.875 13.932 25.875 16.1145 26.1112 17.8717C26.3677 19.7775 26.955 21.6833 28.512 23.2403C30.0645 24.7928 31.9725 25.3823 33.8783 25.6388C35.6355 25.875 37.818 25.875 40.2863 25.875H49.4033C49.5 27.0765 49.5 28.5525 49.5 30.5168V31.5C49.5 39.9847 49.5 44.2282 46.863 46.863C44.226 49.4977 39.9847 49.5 31.5 49.5Z" fill="url(#paint0_linear_60_3296)"/>
<path d="M23.7601 34.8705C23.9178 34.7068 24.0408 34.513 24.1217 34.3006C24.2027 34.0882 24.2399 33.8617 24.2311 33.6346C24.2223 33.4075 24.1678 33.1845 24.0707 32.979C23.9737 32.7735 23.8361 32.5897 23.6662 32.4386C23.4964 32.2876 23.2978 32.1724 23.0824 32.1001C22.8669 32.0277 22.6391 31.9995 22.4125 32.0173C22.186 32.0352 21.9653 32.0986 21.7638 32.2038C21.5624 32.309 21.3842 32.4538 21.2401 32.6295L16.4993 37.962L14.7623 36.0045C14.4652 35.6697 14.0472 35.4667 13.6003 35.4401C13.1535 35.4135 12.7144 35.5656 12.3796 35.8627C12.0448 36.1599 11.8418 36.5779 11.8152 37.0247C11.7887 37.4716 11.9407 37.9107 12.2378 38.2455L15.2393 41.6205C15.3977 41.7982 15.5918 41.9404 15.8089 42.0377C16.0261 42.1351 16.2614 42.1855 16.4993 42.1855C16.7373 42.1855 16.9726 42.1351 17.1898 42.0377C17.4069 41.9404 17.601 41.7982 17.7593 41.6205L23.7601 34.8705ZM25.8976 5.08498L25.8751 11.4637C25.8751 13.932 25.8751 16.1122 26.1113 17.8717C26.3678 19.7775 26.9551 21.6832 28.5121 23.238C30.0646 24.7927 31.9726 25.3822 33.8783 25.6387C35.6356 25.875 37.8181 25.875 40.2863 25.875H49.4033C49.4333 26.223 49.4543 26.598 49.4663 27H49.5001C49.5001 26.397 49.5001 26.0955 49.4776 25.74C49.3067 23.6014 48.562 21.5485 47.3221 19.7977C47.1106 19.5097 46.9666 19.3387 46.6808 18.9945C44.8966 16.8615 42.5476 14.202 40.5001 12.375C38.6776 10.746 36.1778 8.96623 33.9976 7.51273C32.1256 6.26173 31.1896 5.63623 29.9048 5.17273C29.5306 5.04055 29.1508 4.92494 28.7663 4.82623C27.9023 4.61248 27.0608 4.53823 25.8751 4.51123L25.8976 5.08498Z" fill="url(#paint1_linear_60_3296)"/>
<defs>
<linearGradient id="paint0_linear_60_3296" x1="4.49999" y1="4.5" x2="49.5" y2="49.5" gradientUnits="userSpaceOnUse">
<stop stop-color="#00A76F"/>
<stop offset="1" stop-color="#007867"/>
</linearGradient>
<linearGradient id="paint1_linear_60_3296" x1="11.8123" y1="4.51123" x2="49.4865" y2="42.1991" gradientUnits="userSpaceOnUse">
<stop stop-color="#00A76F"/>
<stop offset="1" stop-color="#007867"/>
</linearGradient>
</defs>
</svg>
