<svg width="54" height="54" viewBox="0 0 54 54" fill="none" xmlns="http://www.w3.org/2000/svg">
<path opacity="0.5" fill-rule="evenodd" clip-rule="evenodd" d="M31.5 49.5H22.5C14.0153 49.5 9.77175 49.5 7.137 46.863C4.50225 44.226 4.5 39.9847 4.5 31.5V22.5C4.5 14.0153 4.5 9.77175 7.137 7.137C9.774 4.50225 14.0377 4.5 22.5675 4.5C23.931 4.5 25.0222 4.5 25.9425 4.53825C25.9125 4.71825 25.8975 4.90125 25.8975 5.08725L25.875 11.4637C25.875 13.932 25.875 16.1145 26.1112 17.8717C26.3677 19.7775 26.955 21.6833 28.512 23.2403C30.0645 24.7928 31.9725 25.3823 33.8783 25.6388C35.6355 25.875 37.818 25.875 40.2863 25.875H49.4033C49.5 27.0765 49.5 28.5525 49.5 30.5168V31.5C49.5 39.9847 49.5 44.2282 46.863 46.863C44.226 49.4977 39.9847 49.5 31.5 49.5Z" fill="url(#paint0_linear_60_3274)"/>
<path fill-rule="evenodd" clip-rule="evenodd" d="M18.5 43C20.4891 43 22.3968 42.2098 23.8033 40.8033C25.2098 39.3968 26 37.4891 26 35.5C26 33.5109 25.2098 31.6032 23.8033 30.1967C22.3968 28.7902 20.4891 28 18.5 28C16.5109 28 14.6032 28.7902 13.1967 30.1967C11.7902 31.6032 11 33.5109 11 35.5C11 37.4891 11.7902 39.3968 13.1967 40.8033C14.6032 42.2098 16.5109 43 18.5 43ZM19.625 32.5C19.625 32.2016 19.5065 31.9155 19.2955 31.7045C19.0845 31.4935 18.7984 31.375 18.5 31.375C18.2016 31.375 17.9155 31.4935 17.7045 31.7045C17.4935 31.9155 17.375 32.2016 17.375 32.5V35.269C17.375 35.539 17.4725 35.8015 17.6495 36.0055L19.1495 37.7365C19.2462 37.8482 19.364 37.9397 19.4961 38.0059C19.6282 38.0721 19.772 38.1116 19.9194 38.1222C20.0668 38.1328 20.2148 38.1142 20.355 38.0676C20.4952 38.021 20.6248 37.9472 20.7365 37.8505C20.8482 37.7538 20.9397 37.636 21.0059 37.5039C21.0721 37.3718 21.1116 37.228 21.1222 37.0806C21.1328 36.9332 21.1142 36.7852 21.0676 36.645C21.021 36.5048 20.9472 36.3752 20.8505 36.2635L19.625 34.849V32.5Z" fill="url(#paint1_linear_60_3274)"/>
<path d="M25.8975 5.08498L25.875 11.4637C25.875 13.932 25.875 16.1122 26.1112 17.8717C26.3677 19.7775 26.955 21.6832 28.512 23.238C30.0645 24.7927 31.9725 25.3822 33.8782 25.6387C35.6355 25.875 37.818 25.875 40.2863 25.875H49.4033C49.4333 26.223 49.4543 26.598 49.4663 27H49.5C49.5 26.397 49.5 26.0955 49.4775 25.74C49.3066 23.6014 48.5619 21.5485 47.322 19.7977C47.1105 19.5097 46.9665 19.3387 46.6807 18.9945C44.8965 16.8615 42.5475 14.202 40.5 12.375C38.6775 10.746 36.1777 8.96623 33.9975 7.51273C32.1255 6.26173 31.1895 5.63623 29.9047 5.17273C29.5305 5.04055 29.1507 4.92494 28.7662 4.82623C27.9022 4.61248 27.0608 4.53823 25.875 4.51123L25.8975 5.08498Z" fill="url(#paint2_linear_60_3274)"/>
<defs>
<linearGradient id="paint0_linear_60_3274" x1="4.49999" y1="4.50003" x2="61.2885" y2="47.9284" gradientUnits="userSpaceOnUse">
<stop stop-color="#FFAB00"/>
<stop offset="1" stop-color="#B76E00"/>
</linearGradient>
<linearGradient id="paint1_linear_60_3274" x1="11" y1="28" x2="29.9295" y2="42.4761" gradientUnits="userSpaceOnUse">
<stop stop-color="#FFAB00"/>
<stop offset="1" stop-color="#B76E00"/>
</linearGradient>
<linearGradient id="paint2_linear_60_3274" x1="25.875" y1="4.51124" x2="54.5911" y2="27.5811" gradientUnits="userSpaceOnUse">
<stop stop-color="#FFAB00"/>
<stop offset="1" stop-color="#B76E00"/>
</linearGradient>
</defs>
</svg>
