<?xml version="1.0" encoding="utf-8"?>
<!-- Generator: Adobe Illustrator 24.3.0, SVG Export Plug-In . SVG Version: 6.00 Build 0)  -->
<svg version="1.1" id="Layer_1" xmlns="http://www.w3.org/2000/svg" xmlns:xlink="http://www.w3.org/1999/xlink" x="0px" y="0px"
	 viewBox="0 0 96 61" style="enable-background:new 0 0 96 61;" xml:space="preserve">
<style type="text/css">
	.st0{fill:#FA4616;}
</style>
<g>
	<g>
		<path class="st0" d="M65.5,52h-35C16.4,52,5,40.6,5,26.5S16.4,1,30.5,1h35C79.6,1,91,12.4,91,26.5S79.6,52,65.5,52z M30.5,6
			C19.2,6,10,15.2,10,26.5S19.2,47,30.5,47h35C76.8,47,86,37.8,86,26.5S76.8,6,65.5,6H30.5z"/>
	</g>
</g>
<g>
	<path class="st0" d="M29.2,37l-4-7.6h0V37h-6.7V15.8h9.9c1.7,0,3.2,0.3,4.4,0.9c1.2,0.6,2.1,1.4,2.7,2.5c0.6,1,0.9,2.2,0.9,3.5
		c0,1.4-0.4,2.7-1.2,3.8c-0.8,1.1-1.9,1.9-3.4,2.4l4.6,8.1H29.2z M25.2,24.9h2.6c0.6,0,1.1-0.1,1.4-0.4c0.3-0.3,0.5-0.8,0.5-1.4
		c0-0.6-0.2-1-0.5-1.3c-0.3-0.3-0.8-0.5-1.4-0.5h-2.6V24.9z M56,23c0,1.3-0.3,2.6-0.9,3.7c-0.6,1.1-1.5,1.9-2.8,2.6
		c-1.2,0.6-2.7,1-4.4,1h-2.6V37h-6.7V15.8h9.3c2.6,0,4.6,0.7,6,2C55.3,19.1,56,20.8,56,23z M47.1,25c1.4,0,2.1-0.6,2.1-2
		c0-1.3-0.7-1.9-2.1-1.9h-1.9V25H47.1z M71.7,33.8h-7.1L63.6,37h-7l7.8-21.2H72L79.8,37h-7L71.7,33.8z M70.1,28.8l-1.9-5.9l-1.9,5.9
		H70.1z"/>
</g>
</svg>
